<?xml version="1.0" encoding="utf-8"?>
<!-- Generator: Adobe Illustrator 23.0.5, SVG Export Plug-In . SVG Version: 6.00 Build 0)  -->
<svg version="1.1" id="Capa_1" xmlns="http://www.w3.org/2000/svg" xmlns:xlink="http://www.w3.org/1999/xlink" x="0px" y="0px"
	 width="100px" height="100px" viewBox="0 0 100 100" style="enable-background:new 0 0 100 100;" xml:space="preserve">
<path d="M42,0c-3.3,0-6,2.7-6,6v4H20.4c-0.2,0-0.5,0-0.8,0H16c-0.1,0-0.1,0-0.2,0c-1.1,0.1-2,1-1.9,2.1s1,2,2.1,1.9l-9.3,2.2l7.2,81
	C25.6,97.8,28,100,30.8,100h38.4c2.8,0,5.2-2.2,5.4-5l7.2-81H84c0.7,0,1.4-0.4,1.8-1c0.4-0.6,0.4-1.4,0-2c-0.4-0.6-1-1-1.8-1H64V6
	c0-3.3-2.7-6-6-6H42z M42,4h16c1.1,0,2,0.9,2,2v4H40V6C40,4.9,40.9,4,42,4z M22.2,14h55.6l-7.2,80.7c-0.1,0.7-0.8,1.3-1.4,1.3H30.8
	c-0.6,0-1.4-0.6-1.4-1.3L22.2,14z M37.8,19.9c-0.1,0-0.2,0-0.2,0.1c-0.9,0.2-1.6,1-1.6,2v66c0,0.7,0.4,1.4,1,1.8
	c0.6,0.4,1.4,0.4,2,0c0.6-0.4,1-1,1-1.8V22c0-0.6-0.2-1.1-0.6-1.5C39,20.1,38.4,19.9,37.8,19.9z M49.8,19.9c-0.1,0-0.2,0-0.2,0.1
	c-0.9,0.2-1.6,1-1.6,2v66c0,0.7,0.4,1.4,1,1.8c0.6,0.4,1.4,0.4,2,0c0.6-0.4,1-1,1-1.8V22c0-0.6-0.2-1.1-0.6-1.5
	C51,20.1,50.4,19.9,49.8,19.9z M61.8,19.9c-0.1,0-0.2,0-0.2,0.1c-0.9,0.2-1.6,1-1.6,2v66c0,0.7,0.4,1.4,1,1.8c0.6,0.4,1.4,0.4,2,0
	c0.6-0.4,1-1,1-1.8V22c0-0.6-0.2-1.1-0.6-1.5C63,20.1,62.4,19.9,61.8,19.9z"/>
</svg>
